# bcan mesh for mechanism-demo. Coordinates are RELATIVE TO THE
# COMPONENT ORIGIN — the demo applies pos/rot/scale at render time.
# Regenerate: python tools/build_mechanism_models.py

mtllib materials.mtl

o part0
usemtl c_77A0BC_100
v -0.141 0.229 0.000
v 0.139 0.225 0.000
v -0.140 -0.226 0.000
v 0.134 -0.217 0.000
v 0.000 -0.132 0.214
v 0.000 0.140 0.227
v 0.000 -0.132 -0.214
v 0.000 0.142 -0.230
v 0.223 0.000 -0.138
v 0.217 0.000 0.134
v -0.231 0.000 -0.143
v -0.214 0.000 0.132
v -0.211 0.130 0.080
v -0.125 0.077 0.202
v -0.084 0.220 0.136
v 0.081 0.212 0.131
v 0.000 0.268 0.000
v 0.079 0.206 -0.127
v -0.083 0.217 -0.134
v -0.133 0.082 -0.215
v -0.213 0.132 -0.081
v -0.272 0.000 0.000
v 0.129 0.080 0.209
v 0.209 0.129 0.080
v -0.132 -0.082 0.214
v 0.000 0.000 0.269
v -0.207 -0.128 -0.079
v -0.214 -0.132 0.082
v 0.000 0.000 -0.252
v -0.131 -0.081 -0.211
v 0.216 0.133 -0.083
v 0.124 0.077 -0.201
v 0.215 -0.133 0.082
v 0.124 -0.076 0.200
v 0.084 -0.220 0.136
v -0.080 -0.210 0.130
v 0.000 -0.258 0.000
v -0.082 -0.215 -0.133
v 0.081 -0.211 -0.130
v 0.133 -0.082 -0.215
v 0.202 -0.125 -0.077
v 0.262 0.000 0.000
f 1 13 15
f 12 14 13
f 6 15 14
f 13 14 15
f 1 15 17
f 6 16 15
f 2 17 16
f 15 16 17
f 1 17 19
f 2 18 17
f 8 19 18
f 17 18 19
f 1 19 21
f 8 20 19
f 11 21 20
f 19 20 21
f 1 21 13
f 11 22 21
f 12 13 22
f 21 22 13
f 2 16 24
f 6 23 16
f 10 24 23
f 16 23 24
f 6 14 26
f 12 25 14
f 5 26 25
f 14 25 26
f 12 22 28
f 11 27 22
f 3 28 27
f 22 27 28
f 11 20 30
f 8 29 20
f 7 30 29
f 20 29 30
f 8 18 32
f 2 31 18
f 9 32 31
f 18 31 32
f 4 33 35
f 10 34 33
f 5 35 34
f 33 34 35
f 4 35 37
f 5 36 35
f 3 37 36
f 35 36 37
f 4 37 39
f 3 38 37
f 7 39 38
f 37 38 39
f 4 39 41
f 7 40 39
f 9 41 40
f 39 40 41
f 4 41 33
f 9 42 41
f 10 33 42
f 41 42 33
f 5 34 26
f 10 23 34
f 6 26 23
f 34 23 26
f 3 36 28
f 5 25 36
f 12 28 25
f 36 25 28
f 7 38 30
f 3 27 38
f 11 30 27
f 38 27 30
f 9 40 32
f 7 29 40
f 8 32 29
f 40 29 32
f 10 42 24
f 9 31 42
f 2 24 31
f 42 31 24
