# bdnf mesh for mechanism-demo. Coordinates are RELATIVE TO THE
# COMPONENT ORIGIN — the demo applies pos/rot/scale at render time.
# Regenerate: python tools/build_mechanism_models.py

mtllib materials.mtl

o part0
usemtl c_F4C76B_100
v -0.367 0.206 0.000
v 0.057 0.217 0.000
v -0.352 -0.191 0.000
v 0.044 -0.203 0.000
v -0.160 -0.128 0.234
v -0.160 0.127 0.231
v -0.160 -0.119 -0.216
v -0.160 0.128 -0.233
v 0.159 0.000 -0.136
v 0.158 0.000 0.136
v -0.509 0.000 -0.149
v -0.478 0.000 0.136
f 1 12 6
f 1 6 2
f 1 2 8
f 1 8 11
f 1 11 12
f 2 6 10
f 6 12 5
f 12 11 3
f 11 8 7
f 8 2 9
f 4 10 5
f 4 5 3
f 4 3 7
f 4 7 9
f 4 9 10
f 5 10 6
f 3 5 12
f 7 3 11
f 9 7 8
f 10 9 2
o part1
usemtl c_E0A94E_100
v -0.044 0.203 0.000
v 0.372 0.211 0.000
v -0.051 -0.210 0.000
v 0.367 -0.206 0.000
v 0.160 -0.132 0.240
v 0.160 0.126 0.229
v 0.160 -0.128 -0.234
v 0.160 0.132 -0.240
v 0.500 0.000 -0.145
v 0.498 0.000 0.145
v -0.167 0.000 -0.140
v -0.174 0.000 0.143
f 13 24 18
f 13 18 14
f 13 14 20
f 13 20 23
f 13 23 24
f 14 18 22
f 18 24 17
f 24 23 15
f 23 20 19
f 20 14 21
f 16 22 17
f 16 17 15
f 16 15 19
f 16 19 21
f 16 21 22
f 17 22 18
f 15 17 24
f 19 15 23
f 21 19 20
f 22 21 14
