# core mesh for mechanism-demo. Coordinates are RELATIVE TO THE
# COMPONENT ORIGIN — the demo applies pos/rot/scale at render time.
# Regenerate: python tools/build_mechanism_models.py

mtllib materials.mtl

o part0
usemtl c_2D5A7F_100
v 0.000 -0.110 0.200
v -0.095 -0.055 0.200
v -0.095 0.055 0.200
v -0.000 0.110 0.200
v 0.095 0.055 0.200
v 0.095 -0.055 0.200
v 0.000 -0.110 -0.350
v -0.095 -0.055 -0.350
v -0.095 0.055 -0.350
v -0.000 0.110 -0.350
v 0.095 0.055 -0.350
v 0.095 -0.055 -0.350
f 1 2 8
f 1 8 7
f 2 3 9
f 2 9 8
f 3 4 10
f 3 10 9
f 4 5 11
f 4 11 10
f 5 6 12
f 5 12 11
f 6 1 7
f 6 7 12
f 6 5 4
f 6 4 3
f 6 3 2
f 6 2 1
f 7 8 9
f 7 9 10
f 7 10 11
f 7 11 12
