# dna mesh for mechanism-demo. Coordinates are RELATIVE TO THE
# COMPONENT ORIGIN — the demo applies pos/rot/scale at render time.
# Regenerate: python tools/build_mechanism_models.py

mtllib materials.mtl

o part0
usemtl c_77A0BC_100
v 0.334 0.027 -1.040
v 0.283 0.036 -1.088
v 0.228 -0.004 -1.070
v 0.245 -0.039 -1.010
v 0.310 -0.020 -0.992
v 0.224 0.249 -0.880
v 0.173 0.258 -0.928
v 0.118 0.218 -0.910
v 0.135 0.184 -0.850
v 0.201 0.203 -0.832
f 1 2 7
f 1 7 6
f 2 3 8
f 2 8 7
f 3 4 9
f 3 9 8
f 4 5 10
f 4 10 9
f 5 1 6
f 5 6 10
f 5 4 3
f 5 3 2
f 5 2 1
f 6 7 8
f 6 8 9
f 6 9 10
o part1
usemtl c_77A0BC_100
v 0.182 0.281 -0.880
v 0.144 0.246 -0.928
v 0.142 0.178 -0.910
v 0.180 0.171 -0.850
v 0.204 0.234 -0.832
v -0.061 0.329 -0.720
v -0.099 0.295 -0.768
v -0.101 0.227 -0.750
v -0.063 0.219 -0.690
v -0.038 0.283 -0.672
f 11 12 17
f 11 17 16
f 12 13 18
f 12 18 17
f 13 14 19
f 13 19 18
f 14 15 20
f 14 20 19
f 15 11 16
f 15 16 20
f 15 14 13
f 15 13 12
f 15 12 11
f 16 17 18
f 16 18 19
f 16 19 20
o part2
usemtl c_77A0BC_100
v -0.112 0.316 -0.720
v -0.108 0.264 -0.768
v -0.055 0.221 -0.750
v -0.026 0.247 -0.690
v -0.061 0.305 -0.672
v -0.298 0.152 -0.560
v -0.294 0.101 -0.608
v -0.241 0.058 -0.590
v -0.212 0.083 -0.530
v -0.248 0.142 -0.512
f 21 22 27
f 21 27 26
f 22 23 28
f 22 28 27
f 23 24 29
f 23 29 28
f 24 25 30
f 24 30 29
f 25 21 26
f 25 26 30
f 25 24 23
f 25 23 22
f 25 22 21
f 26 27 28
f 26 28 29
f 26 29 30
o part3
usemtl c_77A0BC_100
v -0.319 0.103 -0.560
v -0.275 0.075 -0.608
v -0.209 0.091 -0.590
v -0.212 0.129 -0.530
v -0.279 0.137 -0.512
v -0.302 -0.144 -0.400
v -0.259 -0.172 -0.448
v -0.193 -0.156 -0.430
v -0.195 -0.118 -0.370
v -0.263 -0.110 -0.352
f 31 32 37
f 31 37 36
f 32 33 38
f 32 38 37
f 33 34 39
f 33 39 38
f 34 35 40
f 34 40 39
f 35 31 36
f 35 36 40
f 35 34 33
f 35 33 32
f 35 32 31
f 36 37 38
f 36 38 39
f 36 39 40
o part4
usemtl c_77A0BC_100
v -0.276 -0.190 -0.400
v -0.227 -0.173 -0.448
v -0.200 -0.110 -0.430
v -0.231 -0.089 -0.370
v -0.279 -0.138 -0.352
v -0.070 -0.327 -0.240
v -0.021 -0.310 -0.288
v 0.006 -0.248 -0.270
v -0.025 -0.227 -0.210
v -0.073 -0.276 -0.192
f 41 42 47
f 41 47 46
f 42 43 48
f 42 48 47
f 43 44 49
f 43 49 48
f 44 45 50
f 44 50 49
f 45 41 46
f 45 46 50
f 45 44 43
f 45 43 42
f 45 42 41
f 46 47 48
f 46 48 49
f 46 49 50
o part5
usemtl c_77A0BC_100
v -0.017 -0.334 -0.240
v -0.001 -0.285 -0.288
v -0.034 -0.225 -0.270
v -0.070 -0.238 -0.210
v -0.060 -0.305 -0.192
v 0.217 -0.255 -0.080
v 0.233 -0.206 -0.128
v 0.201 -0.146 -0.110
v 0.164 -0.158 -0.050
v 0.175 -0.225 -0.032
f 51 52 57
f 51 57 56
f 52 53 58
f 52 58 57
f 53 54 59
f 53 59 58
f 54 55 60
f 54 60 59
f 55 51 56
f 55 56 60
f 55 54 53
f 55 53 52
f 55 52 51
f 56 57 58
f 56 58 59
f 56 59 60
o part6
usemtl c_77A0BC_100
v 0.255 -0.217 -0.080
v 0.225 -0.175 -0.128
v 0.158 -0.164 -0.110
v 0.146 -0.201 -0.050
v 0.206 -0.233 -0.032
v 0.334 0.017 0.080
v 0.305 0.060 0.032
v 0.238 0.070 0.050
v 0.225 0.034 0.110
v 0.285 0.001 0.128
f 61 62 67
f 61 67 66
f 62 63 68
f 62 68 67
f 63 64 69
f 63 69 68
f 64 65 70
f 64 70 69
f 65 61 66
f 65 66 70
f 65 64 63
f 65 63 62
f 65 62 61
f 66 67 68
f 66 68 69
f 66 69 70
o part7
usemtl c_77A0BC_100
v 0.327 0.070 0.080
v 0.276 0.073 0.032
v 0.227 0.025 0.050
v 0.248 -0.006 0.110
v 0.310 0.021 0.128
v 0.190 0.276 0.240
v 0.138 0.279 0.192
v 0.089 0.231 0.210
v 0.110 0.200 0.270
v 0.173 0.227 0.288
f 71 72 77
f 71 77 76
f 72 73 78
f 72 78 77
f 73 74 79
f 73 79 78
f 74 75 80
f 74 80 79
f 75 71 76
f 75 76 80
f 75 74 73
f 75 73 72
f 75 72 71
f 76 77 78
f 76 78 79
f 76 79 80
o part8
usemtl c_77A0BC_100
v 0.144 0.302 0.240
v 0.110 0.263 0.192
v 0.118 0.195 0.210
v 0.156 0.193 0.270
v 0.172 0.259 0.288
v -0.103 0.319 0.400
v -0.137 0.279 0.352
v -0.129 0.212 0.370
v -0.091 0.209 0.430
v -0.075 0.275 0.448
f 81 82 87
f 81 87 86
f 82 83 88
f 82 88 87
f 83 84 89
f 83 89 88
f 84 85 90
f 84 90 89
f 85 81 86
f 85 86 90
f 85 84 83
f 85 83 82
f 85 82 81
f 86 87 88
f 86 88 89
f 86 89 90
o part9
usemtl c_77A0BC_100
v -0.152 0.298 0.400
v -0.142 0.248 0.352
v -0.083 0.212 0.370
v -0.058 0.241 0.430
v -0.101 0.294 0.448
v -0.316 0.112 0.560
v -0.305 0.061 0.512
v -0.247 0.026 0.530
v -0.221 0.055 0.590
v -0.264 0.108 0.608
f 91 92 97
f 91 97 96
f 92 93 98
f 92 98 97
f 93 94 99
f 93 99 98
f 94 95 100
f 94 100 99
f 95 91 96
f 95 96 100
f 95 94 93
f 95 93 92
f 95 92 91
f 96 97 98
f 96 98 99
f 96 99 100
o part10
usemtl c_77A0BC_100
v -0.329 0.061 0.560
v -0.283 0.038 0.512
v -0.219 0.063 0.530
v -0.227 0.101 0.590
v -0.295 0.099 0.608
v -0.281 -0.182 0.720
v -0.234 -0.204 0.672
v -0.171 -0.180 0.690
v -0.178 -0.142 0.750
v -0.246 -0.144 0.768
f 101 102 107
f 101 107 106
f 102 103 108
f 102 108 107
f 103 104 109
f 103 109 108
f 104 105 110
f 104 110 109
f 105 101 106
f 105 106 110
f 105 104 103
f 105 103 102
f 105 102 101
f 106 107 108
f 106 108 109
f 106 109 110
o part11
usemtl c_77A0BC_100
v -0.249 -0.224 0.720
v -0.203 -0.201 0.672
v -0.184 -0.135 0.690
v -0.218 -0.118 0.750
v -0.258 -0.173 0.768
v -0.027 -0.334 0.880
v 0.020 -0.310 0.832
v 0.039 -0.245 0.850
v 0.004 -0.228 0.910
v -0.036 -0.283 0.928
f 111 112 117
f 111 117 116
f 112 113 118
f 112 118 117
f 113 114 119
f 113 119 118
f 114 115 120
f 114 120 119
f 115 111 116
f 115 116 120
f 115 114 113
f 115 113 112
f 115 112 111
f 116 117 118
f 116 118 119
f 116 119 120
o part12
usemtl c_53DBD3_100
v -0.334 -0.027 -1.040
v -0.283 -0.036 -1.088
v -0.228 0.004 -1.070
v -0.245 0.039 -1.010
v -0.310 0.020 -0.992
v -0.224 -0.249 -0.880
v -0.173 -0.258 -0.928
v -0.118 -0.218 -0.910
v -0.135 -0.184 -0.850
v -0.201 -0.203 -0.832
f 121 122 127
f 121 127 126
f 122 123 128
f 122 128 127
f 123 124 129
f 123 129 128
f 124 125 130
f 124 130 129
f 125 121 126
f 125 126 130
f 125 124 123
f 125 123 122
f 125 122 121
f 126 127 128
f 126 128 129
f 126 129 130
o part13
usemtl c_53DBD3_100
v -0.182 -0.281 -0.880
v -0.144 -0.246 -0.928
v -0.142 -0.178 -0.910
v -0.180 -0.171 -0.850
v -0.204 -0.234 -0.832
v 0.061 -0.329 -0.720
v 0.099 -0.295 -0.768
v 0.101 -0.227 -0.750
v 0.063 -0.219 -0.690
v 0.038 -0.283 -0.672
f 131 132 137
f 131 137 136
f 132 133 138
f 132 138 137
f 133 134 139
f 133 139 138
f 134 135 140
f 134 140 139
f 135 131 136
f 135 136 140
f 135 134 133
f 135 133 132
f 135 132 131
f 136 137 138
f 136 138 139
f 136 139 140
o part14
usemtl c_53DBD3_100
v 0.112 -0.316 -0.720
v 0.108 -0.264 -0.768
v 0.055 -0.221 -0.750
v 0.026 -0.247 -0.690
v 0.061 -0.305 -0.672
v 0.298 -0.152 -0.560
v 0.294 -0.101 -0.608
v 0.241 -0.058 -0.590
v 0.212 -0.083 -0.530
v 0.248 -0.142 -0.512
f 141 142 147
f 141 147 146
f 142 143 148
f 142 148 147
f 143 144 149
f 143 149 148
f 144 145 150
f 144 150 149
f 145 141 146
f 145 146 150
f 145 144 143
f 145 143 142
f 145 142 141
f 146 147 148
f 146 148 149
f 146 149 150
o part15
usemtl c_53DBD3_100
v 0.319 -0.103 -0.560
v 0.275 -0.075 -0.608
v 0.209 -0.091 -0.590
v 0.212 -0.129 -0.530
v 0.279 -0.137 -0.512
v 0.302 0.144 -0.400
v 0.259 0.172 -0.448
v 0.193 0.156 -0.430
v 0.195 0.118 -0.370
v 0.263 0.110 -0.352
f 151 152 157
f 151 157 156
f 152 153 158
f 152 158 157
f 153 154 159
f 153 159 158
f 154 155 160
f 154 160 159
f 155 151 156
f 155 156 160
f 155 154 153
f 155 153 152
f 155 152 151
f 156 157 158
f 156 158 159
f 156 159 160
o part16
usemtl c_53DBD3_100
v 0.276 0.190 -0.400
v 0.227 0.173 -0.448
v 0.200 0.110 -0.430
v 0.231 0.089 -0.370
v 0.279 0.138 -0.352
v 0.070 0.327 -0.240
v 0.021 0.310 -0.288
v -0.006 0.248 -0.270
v 0.025 0.227 -0.210
v 0.073 0.276 -0.192
f 161 162 167
f 161 167 166
f 162 163 168
f 162 168 167
f 163 164 169
f 163 169 168
f 164 165 170
f 164 170 169
f 165 161 166
f 165 166 170
f 165 164 163
f 165 163 162
f 165 162 161
f 166 167 168
f 166 168 169
f 166 169 170
o part17
usemtl c_53DBD3_100
v 0.017 0.334 -0.240
v 0.001 0.285 -0.288
v 0.034 0.225 -0.270
v 0.070 0.238 -0.210
v 0.060 0.305 -0.192
v -0.217 0.255 -0.080
v -0.233 0.206 -0.128
v -0.201 0.146 -0.110
v -0.164 0.158 -0.050
v -0.175 0.225 -0.032
f 171 172 177
f 171 177 176
f 172 173 178
f 172 178 177
f 173 174 179
f 173 179 178
f 174 175 180
f 174 180 179
f 175 171 176
f 175 176 180
f 175 174 173
f 175 173 172
f 175 172 171
f 176 177 178
f 176 178 179
f 176 179 180
o part18
usemtl c_53DBD3_100
v -0.255 0.217 -0.080
v -0.225 0.175 -0.128
v -0.158 0.164 -0.110
v -0.146 0.201 -0.050
v -0.206 0.233 -0.032
v -0.334 -0.017 0.080
v -0.305 -0.060 0.032
v -0.238 -0.070 0.050
v -0.225 -0.034 0.110
v -0.285 -0.001 0.128
f 181 182 187
f 181 187 186
f 182 183 188
f 182 188 187
f 183 184 189
f 183 189 188
f 184 185 190
f 184 190 189
f 185 181 186
f 185 186 190
f 185 184 183
f 185 183 182
f 185 182 181
f 186 187 188
f 186 188 189
f 186 189 190
o part19
usemtl c_53DBD3_100
v -0.327 -0.070 0.080
v -0.276 -0.073 0.032
v -0.227 -0.025 0.050
v -0.248 0.006 0.110
v -0.310 -0.021 0.128
v -0.190 -0.276 0.240
v -0.138 -0.279 0.192
v -0.089 -0.231 0.210
v -0.110 -0.200 0.270
v -0.173 -0.227 0.288
f 191 192 197
f 191 197 196
f 192 193 198
f 192 198 197
f 193 194 199
f 193 199 198
f 194 195 200
f 194 200 199
f 195 191 196
f 195 196 200
f 195 194 193
f 195 193 192
f 195 192 191
f 196 197 198
f 196 198 199
f 196 199 200
o part20
usemtl c_53DBD3_100
v -0.144 -0.302 0.240
v -0.110 -0.263 0.192
v -0.118 -0.195 0.210
v -0.156 -0.193 0.270
v -0.172 -0.259 0.288
v 0.103 -0.319 0.400
v 0.137 -0.279 0.352
v 0.129 -0.212 0.370
v 0.091 -0.209 0.430
v 0.075 -0.275 0.448
f 201 202 207
f 201 207 206
f 202 203 208
f 202 208 207
f 203 204 209
f 203 209 208
f 204 205 210
f 204 210 209
f 205 201 206
f 205 206 210
f 205 204 203
f 205 203 202
f 205 202 201
f 206 207 208
f 206 208 209
f 206 209 210
o part21
usemtl c_53DBD3_100
v 0.152 -0.298 0.400
v 0.142 -0.248 0.352
v 0.083 -0.212 0.370
v 0.058 -0.241 0.430
v 0.101 -0.294 0.448
v 0.316 -0.112 0.560
v 0.305 -0.061 0.512
v 0.247 -0.026 0.530
v 0.221 -0.055 0.590
v 0.264 -0.108 0.608
f 211 212 217
f 211 217 216
f 212 213 218
f 212 218 217
f 213 214 219
f 213 219 218
f 214 215 220
f 214 220 219
f 215 211 216
f 215 216 220
f 215 214 213
f 215 213 212
f 215 212 211
f 216 217 218
f 216 218 219
f 216 219 220
o part22
usemtl c_53DBD3_100
v 0.329 -0.061 0.560
v 0.283 -0.038 0.512
v 0.219 -0.063 0.530
v 0.227 -0.101 0.590
v 0.295 -0.099 0.608
v 0.281 0.182 0.720
v 0.234 0.204 0.672
v 0.171 0.180 0.690
v 0.178 0.142 0.750
v 0.246 0.144 0.768
f 221 222 227
f 221 227 226
f 222 223 228
f 222 228 227
f 223 224 229
f 223 229 228
f 224 225 230
f 224 230 229
f 225 221 226
f 225 226 230
f 225 224 223
f 225 223 222
f 225 222 221
f 226 227 228
f 226 228 229
f 226 229 230
o part23
usemtl c_53DBD3_100
v 0.249 0.224 0.720
v 0.203 0.201 0.672
v 0.184 0.135 0.690
v 0.218 0.118 0.750
v 0.258 0.173 0.768
v 0.027 0.334 0.880
v -0.020 0.310 0.832
v -0.039 0.245 0.850
v -0.004 0.228 0.910
v 0.036 0.283 0.928
f 231 232 237
f 231 237 236
f 232 233 238
f 232 238 237
f 233 234 239
f 233 239 238
f 234 235 240
f 234 240 239
f 235 231 236
f 235 236 240
f 235 234 233
f 235 233 232
f 235 232 231
f 236 237 238
f 236 238 239
f 236 239 240
o part24
usemtl c_9FB3C8_100
v 0.280 0.035 -1.040
v 0.280 0.011 -1.073
v 0.280 -0.028 -1.061
v 0.280 -0.028 -1.019
v 0.280 0.011 -1.007
v -0.280 0.035 -1.040
v -0.280 0.011 -1.073
v -0.280 -0.028 -1.061
v -0.280 -0.028 -1.019
v -0.280 0.011 -1.007
f 241 242 247
f 241 247 246
f 242 243 248
f 242 248 247
f 243 244 249
f 243 249 248
f 244 245 250
f 244 250 249
f 245 241 246
f 245 246 250
f 245 244 243
f 245 243 242
f 245 242 241
f 246 247 248
f 246 248 249
f 246 249 250
o part25
usemtl c_9FB3C8_100
v -0.106 0.261 -0.720
v -0.083 0.268 -0.753
v -0.045 0.278 -0.741
v -0.045 0.278 -0.699
v -0.083 0.268 -0.687
v 0.039 -0.280 -0.720
v 0.062 -0.273 -0.753
v 0.100 -0.263 -0.741
v 0.100 -0.263 -0.699
v 0.062 -0.273 -0.687
f 251 252 257
f 251 257 256
f 252 253 258
f 252 258 257
f 253 254 259
f 253 259 258
f 254 255 260
f 254 260 259
f 255 251 256
f 255 256 260
f 255 254 253
f 255 253 252
f 255 252 251
f 256 257 258
f 256 258 259
f 256 259 260
o part26
usemtl c_9FB3C8_100
v -0.225 -0.170 -0.400
v -0.237 -0.149 -0.433
v -0.257 -0.115 -0.421
v -0.257 -0.115 -0.379
v -0.237 -0.149 -0.367
v 0.260 0.110 -0.400
v 0.248 0.131 -0.433
v 0.228 0.165 -0.421
v 0.228 0.165 -0.379
v 0.248 0.131 -0.367
f 261 262 267
f 261 267 266
f 262 263 268
f 262 268 267
f 263 264 269
f 263 269 268
f 264 265 270
f 264 270 269
f 265 261 266
f 265 266 270
f 265 264 263
f 265 263 262
f 265 262 261
f 266 267 268
f 266 268 269
f 266 269 270
o part27
usemtl c_9FB3C8_100
v 0.223 -0.173 -0.080
v 0.206 -0.190 -0.113
v 0.178 -0.218 -0.101
v 0.178 -0.218 -0.059
v 0.206 -0.190 -0.047
v -0.173 0.223 -0.080
v -0.190 0.206 -0.113
v -0.218 0.178 -0.101
v -0.218 0.178 -0.059
v -0.190 0.206 -0.047
f 271 272 277
f 271 277 276
f 272 273 278
f 272 278 277
f 273 274 279
f 273 279 278
f 274 275 280
f 274 280 279
f 275 271 276
f 275 276 280
f 275 274 273
f 275 273 272
f 275 272 271
f 276 277 278
f 276 278 279
f 276 279 280
o part28
usemtl c_9FB3C8_100
v 0.110 0.260 0.240
v 0.131 0.248 0.207
v 0.165 0.228 0.219
v 0.165 0.228 0.261
v 0.131 0.248 0.273
v -0.170 -0.225 0.240
v -0.149 -0.237 0.207
v -0.115 -0.257 0.219
v -0.115 -0.257 0.261
v -0.149 -0.237 0.273
f 281 282 287
f 281 287 286
f 282 283 288
f 282 288 287
f 283 284 289
f 283 289 288
f 284 285 290
f 284 290 289
f 285 281 286
f 285 286 290
f 285 284 283
f 285 283 282
f 285 282 281
f 286 287 288
f 286 288 289
f 286 289 290
o part29
usemtl c_9FB3C8_100
v -0.280 0.039 0.560
v -0.273 0.062 0.527
v -0.263 0.100 0.539
v -0.263 0.100 0.581
v -0.273 0.062 0.593
v 0.261 -0.106 0.560
v 0.268 -0.083 0.527
v 0.278 -0.045 0.539
v 0.278 -0.045 0.581
v 0.268 -0.083 0.593
f 291 292 297
f 291 297 296
f 292 293 298
f 292 298 297
f 293 294 299
f 293 299 298
f 294 295 300
f 294 300 299
f 295 291 296
f 295 296 300
f 295 294 293
f 295 293 292
f 295 292 291
f 296 297 298
f 296 298 299
f 296 299 300
o part30
usemtl c_9FB3C8_100
v 0.035 -0.280 0.880
v 0.011 -0.280 0.847
v -0.028 -0.280 0.859
v -0.028 -0.280 0.901
v 0.011 -0.280 0.913
v 0.035 0.280 0.880
v 0.011 0.280 0.847
v -0.028 0.280 0.859
v -0.028 0.280 0.901
v 0.011 0.280 0.913
f 301 302 307
f 301 307 306
f 302 303 308
f 302 308 307
f 303 304 309
f 303 309 308
f 304 305 310
f 304 310 309
f 305 301 306
f 305 306 310
f 305 304 303
f 305 303 302
f 305 302 301
f 306 307 308
f 306 308 309
f 306 309 310
