# ecto mesh for mechanism-demo. Coordinates are RELATIVE TO THE
# COMPONENT ORIGIN — the demo applies pos/rot/scale at render time.
# Regenerate: python tools/build_mechanism_models.py

mtllib materials.mtl

o part0
usemtl c_77A0BC_100
v -0.173 0.280 0.950
v 0.185 0.299 0.950
v -0.175 -0.284 0.950
v 0.176 -0.285 0.950
v 0.000 -0.184 1.247
v 0.000 0.180 1.242
v 0.000 -0.174 0.668
v 0.000 0.178 0.662
v 0.298 0.000 0.766
v 0.286 0.000 1.127
v -0.294 0.000 0.768
v -0.280 0.000 1.123
v -0.280 0.173 1.057
v -0.174 0.107 1.231
v -0.108 0.282 1.124
v 0.107 0.279 1.122
v 0.000 0.336 0.950
v 0.101 0.265 0.786
v -0.105 0.275 0.780
v -0.174 0.107 0.669
v -0.268 0.166 0.848
v -0.334 0.000 0.950
v 0.170 0.105 1.226
v 0.281 0.173 1.057
v -0.175 -0.108 1.234
v 0.000 0.000 1.280
v -0.268 -0.166 0.848
v -0.282 -0.174 1.058
v 0.000 0.000 0.606
v -0.173 -0.107 0.670
v 0.286 0.177 0.841
v 0.176 0.109 0.665
v 0.283 -0.175 1.058
v 0.174 -0.107 1.231
v 0.104 -0.273 1.119
v -0.106 -0.278 1.122
v 0.000 -0.331 0.950
v -0.107 -0.281 0.776
v 0.107 -0.281 0.776
v 0.173 -0.107 0.670
v 0.274 -0.169 0.845
v 0.337 0.000 0.950
f 1 17 19
f 2 18 17
f 8 19 18
f 17 18 19
f 1 19 21
f 8 20 19
f 11 21 20
f 19 20 21
f 11 22 21
f 11 27 22
f 11 20 30
f 8 29 20
f 7 30 29
f 20 29 30
f 8 18 32
f 2 31 18
f 9 32 31
f 18 31 32
f 4 37 39
f 3 38 37
f 7 39 38
f 37 38 39
f 4 39 41
f 7 40 39
f 9 41 40
f 39 40 41
f 9 42 41
f 7 38 30
f 3 27 38
f 11 30 27
f 38 27 30
f 9 40 32
f 7 29 40
f 8 32 29
f 40 29 32
f 9 31 42
o part1
usemtl c_77A0BC_100
v -0.119 0.192 0.380
v 0.114 0.185 0.380
v -0.124 -0.201 0.380
v 0.120 -0.195 0.380
v 0.000 -0.119 0.592
v 0.000 0.120 0.595
v 0.000 -0.123 0.161
v 0.000 0.118 0.168
v 0.200 0.000 0.243
v 0.202 0.000 0.518
v -0.192 0.000 0.249
v -0.187 0.000 0.508
v -0.189 0.117 0.460
v -0.120 0.074 0.594
v -0.068 0.178 0.502
v 0.072 0.188 0.509
v 0.000 0.235 0.380
v 0.073 0.192 0.249
v -0.068 0.178 0.259
v -0.109 0.068 0.184
v -0.193 0.120 0.298
v -0.219 0.000 0.380
v 0.110 0.068 0.577
v 0.186 0.115 0.458
v -0.113 -0.070 0.583
v 0.000 0.000 0.638
v -0.179 -0.110 0.305
v -0.192 -0.119 0.461
v 0.000 0.000 0.135
v -0.117 -0.072 0.171
v 0.176 0.109 0.305
v 0.114 0.070 0.177
v 0.176 -0.109 0.454
v 0.112 -0.069 0.580
v 0.069 -0.181 0.504
v -0.072 -0.189 0.509
v 0.000 -0.227 0.380
v -0.067 -0.176 0.260
v 0.074 -0.194 0.248
v 0.118 -0.073 0.168
v 0.192 -0.119 0.299
v 0.222 0.000 0.380
f 43 55 57
f 54 56 55
f 48 57 56
f 55 56 57
f 43 57 59
f 48 58 57
f 44 59 58
f 57 58 59
f 43 59 61
f 44 60 59
f 50 61 60
f 59 60 61
f 43 61 63
f 50 62 61
f 53 63 62
f 61 62 63
f 43 63 55
f 53 64 63
f 54 55 64
f 63 64 55
f 44 58 66
f 48 65 58
f 52 66 65
f 58 65 66
f 48 56 68
f 54 67 56
f 47 68 67
f 56 67 68
f 54 64 70
f 53 69 64
f 45 70 69
f 64 69 70
f 53 62 72
f 50 71 62
f 49 72 71
f 62 71 72
f 50 60 74
f 44 73 60
f 51 74 73
f 60 73 74
f 46 75 77
f 52 76 75
f 47 77 76
f 75 76 77
f 46 77 79
f 47 78 77
f 45 79 78
f 77 78 79
f 46 79 81
f 45 80 79
f 49 81 80
f 79 80 81
f 46 81 83
f 49 82 81
f 51 83 82
f 81 82 83
f 46 83 75
f 51 84 83
f 52 75 84
f 83 84 75
f 47 76 68
f 52 65 76
f 48 68 65
f 76 65 68
f 45 78 70
f 47 67 78
f 54 70 67
f 78 67 70
f 49 80 72
f 45 69 80
f 53 72 69
f 80 69 72
f 51 82 74
f 49 71 82
f 50 74 71
f 82 71 74
f 52 84 66
f 51 73 84
f 44 66 73
f 84 73 66
