# neuron mesh for mechanism-demo. Coordinates are RELATIVE TO THE
# COMPONENT ORIGIN — the demo applies pos/rot/scale at render time.
# Regenerate: python tools/build_mechanism_models.py

mtllib materials.mtl

o part0
usemtl c_B9A7E8_100
v -0.307 0.497 0.000
v 0.296 0.478 0.000
v -0.292 -0.473 0.000
v 0.283 -0.459 0.000
v 0.000 -0.285 0.461
v 0.000 0.277 0.448
v 0.000 -0.268 -0.433
v 0.000 0.307 -0.496
v 0.465 0.000 -0.288
v 0.471 0.000 0.291
v -0.455 0.000 -0.281
v -0.487 0.000 0.301
v -0.411 0.254 0.157
v -0.269 0.166 0.436
v -0.157 0.412 0.254
v 0.160 0.418 0.258
v 0.000 0.591 0.000
v 0.174 0.456 -0.282
v -0.168 0.440 -0.272
v -0.276 0.171 -0.447
v -0.472 0.291 -0.180
v -0.536 0.000 0.000
v 0.279 0.172 0.451
v 0.458 0.283 0.175
v -0.269 -0.166 0.435
v 0.000 0.000 0.552
v -0.464 -0.287 -0.177
v -0.474 -0.293 0.181
v 0.000 0.000 -0.519
v -0.294 -0.182 -0.476
v 0.410 0.253 -0.157
v 0.286 0.177 -0.463
v 0.467 -0.289 0.178
v 0.259 -0.160 0.419
v 0.168 -0.439 0.271
v -0.179 -0.467 0.289
v 0.000 -0.507 0.000
v -0.173 -0.454 -0.281
v 0.178 -0.466 -0.288
v 0.276 -0.170 -0.446
v 0.461 -0.285 -0.176
v 0.526 0.000 0.000
f 1 13 15
f 12 14 13
f 6 15 14
f 13 14 15
f 1 15 17
f 6 16 15
f 2 17 16
f 15 16 17
f 1 17 19
f 2 18 17
f 8 19 18
f 17 18 19
f 1 19 21
f 8 20 19
f 11 21 20
f 19 20 21
f 1 21 13
f 11 22 21
f 12 13 22
f 21 22 13
f 2 16 24
f 6 23 16
f 10 24 23
f 16 23 24
f 6 14 26
f 12 25 14
f 5 26 25
f 14 25 26
f 12 22 28
f 11 27 22
f 3 28 27
f 22 27 28
f 11 20 30
f 8 29 20
f 7 30 29
f 20 29 30
f 8 18 32
f 2 31 18
f 9 32 31
f 18 31 32
f 4 33 35
f 10 34 33
f 5 35 34
f 33 34 35
f 4 35 37
f 5 36 35
f 3 37 36
f 35 36 37
f 4 37 39
f 3 38 37
f 7 39 38
f 37 38 39
f 4 39 41
f 7 40 39
f 9 41 40
f 39 40 41
f 4 41 33
f 9 42 41
f 10 33 42
f 41 42 33
f 5 34 26
f 10 23 34
f 6 26 23
f 34 23 26
f 3 36 28
f 5 25 36
f 12 28 25
f 36 25 28
f 7 38 30
f 3 27 38
f 11 30 27
f 38 27 30
f 9 40 32
f 7 29 40
f 8 32 29
f 40 29 32
f 10 42 24
f 9 31 42
f 2 24 31
f 42 31 24
o part1
usemtl c_B9A7E8_100
v -0.085 -0.029 0.100
v -0.034 -0.039 0.026
v 0.051 -0.010 0.026
v 0.085 0.029 0.100
v 0.034 0.039 0.174
v -0.051 0.010 0.174
v 0.168 -0.641 0.331
v 0.196 -0.646 0.291
v 0.243 -0.630 0.291
v 0.261 -0.609 0.331
v 0.233 -0.603 0.372
v 0.187 -0.620 0.372
f 43 44 50
f 43 50 49
f 44 45 51
f 44 51 50
f 45 46 52
f 45 52 51
f 46 47 53
f 46 53 52
f 47 48 54
f 47 54 53
f 48 43 49
f 48 49 54
f 48 47 46
f 48 46 45
f 48 45 44
f 48 44 43
f 49 50 51
f 49 51 52
f 49 52 53
f 49 53 54
o part2
usemtl c_B9A7E8_100
v 0.162 -0.636 0.331
v 0.187 -0.626 0.285
v 0.240 -0.614 0.285
v 0.267 -0.613 0.331
v 0.242 -0.624 0.378
v 0.189 -0.635 0.378
v 0.277 -1.053 0.287
v 0.291 -1.047 0.261
v 0.320 -1.041 0.261
v 0.335 -1.040 0.287
v 0.322 -1.046 0.312
v 0.293 -1.052 0.312
f 55 56 62
f 55 62 61
f 56 57 63
f 56 63 62
f 57 58 64
f 57 64 63
f 58 59 65
f 58 65 64
f 59 60 66
f 59 66 65
f 60 55 61
f 60 61 66
f 60 59 58
f 60 58 57
f 60 57 56
f 60 56 55
f 61 62 63
f 61 63 64
f 61 64 65
f 61 65 66
o part3
usemtl c_B9A7E8_100
v 0.274 -1.042 0.287
v 0.290 -1.048 0.259
v 0.322 -1.053 0.259
v 0.338 -1.052 0.287
v 0.323 -1.045 0.315
v 0.291 -1.041 0.315
v 0.249 -1.308 0.322
v 0.258 -1.311 0.307
v 0.275 -1.314 0.307
v 0.284 -1.313 0.322
v 0.276 -1.310 0.337
v 0.258 -1.307 0.337
f 67 68 74
f 67 74 73
f 68 69 75
f 68 75 74
f 69 70 76
f 69 76 75
f 70 71 77
f 70 77 76
f 71 72 78
f 71 78 77
f 72 67 73
f 72 73 78
f 72 71 70
f 72 70 69
f 72 69 68
f 72 68 67
f 73 74 75
f 73 75 76
f 73 76 77
f 73 77 78
o part4
usemtl c_B9A7E8_100
v 0.279 -1.064 0.287
v 0.297 -1.061 0.260
v 0.324 -1.044 0.260
v 0.334 -1.029 0.287
v 0.316 -1.032 0.314
v 0.289 -1.050 0.314
v 0.435 -1.275 0.353
v 0.444 -1.273 0.338
v 0.459 -1.263 0.338
v 0.464 -1.255 0.353
v 0.455 -1.257 0.368
v 0.440 -1.267 0.368
f 79 80 86
f 79 86 85
f 80 81 87
f 80 87 86
f 81 82 88
f 81 88 87
f 82 83 89
f 82 89 88
f 83 84 90
f 83 90 89
f 84 79 85
f 84 85 90
f 84 83 82
f 84 82 81
f 84 81 80
f 84 80 79
f 85 86 87
f 85 87 88
f 85 88 89
f 85 89 90
o part5
usemtl c_B9A7E8_100
v 0.162 -0.613 0.331
v 0.184 -0.639 0.289
v 0.236 -0.651 0.289
v 0.267 -0.637 0.331
v 0.245 -0.611 0.373
v 0.193 -0.599 0.373
v 0.098 -0.999 0.520
v 0.110 -1.014 0.497
v 0.139 -1.020 0.497
v 0.156 -1.013 0.520
v 0.144 -0.998 0.543
v 0.115 -0.992 0.543
f 91 92 98
f 91 98 97
f 92 93 99
f 92 99 98
f 93 94 100
f 93 100 99
f 94 95 101
f 94 101 100
f 95 96 102
f 95 102 101
f 96 91 97
f 96 97 102
f 96 95 94
f 96 94 93
f 96 93 92
f 96 92 91
f 97 98 99
f 97 99 100
f 97 100 101
f 97 101 102
o part6
usemtl c_B9A7E8_100
v 0.096 -1.015 0.520
v 0.112 -1.012 0.492
v 0.143 -1.003 0.492
v 0.158 -0.997 0.520
v 0.142 -1.000 0.548
v 0.111 -1.009 0.548
v 0.187 -1.269 0.536
v 0.196 -1.267 0.521
v 0.213 -1.262 0.521
v 0.221 -1.258 0.536
v 0.212 -1.260 0.552
v 0.195 -1.265 0.552
f 103 104 110
f 103 110 109
f 104 105 111
f 104 111 110
f 105 106 112
f 105 112 111
f 106 107 113
f 106 113 112
f 107 108 114
f 107 114 113
f 108 103 109
f 108 109 114
f 108 107 106
f 108 106 105
f 108 105 104
f 108 104 103
f 109 110 111
f 109 111 112
f 109 112 113
f 109 113 114
o part7
usemtl c_B9A7E8_100
v 0.095 -1.006 0.520
v 0.111 -1.030 0.506
v 0.143 -1.031 0.506
v 0.160 -1.006 0.520
v 0.144 -0.982 0.533
v 0.111 -0.981 0.533
v 0.108 -1.136 0.755
v 0.117 -1.149 0.748
v 0.135 -1.149 0.748
v 0.144 -1.136 0.755
v 0.135 -1.122 0.763
v 0.117 -1.122 0.763
f 115 116 122
f 115 122 121
f 116 117 123
f 116 123 122
f 117 118 124
f 117 124 123
f 118 119 125
f 118 125 124
f 119 120 126
f 119 126 125
f 120 115 121
f 120 121 126
f 120 119 118
f 120 118 117
f 120 117 116
f 120 116 115
f 121 122 123
f 121 123 124
f 121 124 125
f 121 125 126
o part8
usemtl c_B9A7E8_100
v -0.052 -0.073 0.100
v -0.005 -0.052 0.026
v 0.047 0.022 0.026
v 0.052 0.073 0.100
v 0.005 0.052 0.174
v -0.047 -0.022 0.174
v 0.509 -0.424 0.331
v 0.535 -0.412 0.291
v 0.564 -0.372 0.291
v 0.566 -0.344 0.331
v 0.541 -0.356 0.372
v 0.512 -0.396 0.372
f 127 128 134
f 127 134 133
f 128 129 135
f 128 135 134
f 129 130 136
f 129 136 135
f 130 131 137
f 130 137 136
f 131 132 138
f 131 138 137
f 132 127 133
f 132 133 138
f 132 131 130
f 132 130 129
f 132 129 128
f 132 128 127
f 133 134 135
f 133 135 136
f 133 136 137
f 133 137 138
o part9
usemtl c_B9A7E8_100
v 0.523 -0.436 0.331
v 0.525 -0.408 0.285
v 0.540 -0.356 0.285
v 0.552 -0.332 0.331
v 0.550 -0.359 0.378
v 0.536 -0.411 0.378
v 0.944 -0.530 0.281
v 0.945 -0.515 0.255
v 0.954 -0.487 0.255
v 0.961 -0.473 0.281
v 0.959 -0.488 0.306
v 0.951 -0.517 0.306
f 139 140 146
f 139 146 145
f 140 141 147
f 140 147 146
f 141 142 148
f 141 148 147
f 142 143 149
f 142 149 148
f 143 144 150
f 143 150 149
f 144 139 145
f 144 145 150
f 144 143 142
f 144 142 141
f 144 141 140
f 144 140 139
f 145 146 147
f 145 147 148
f 145 148 149
f 145 149 150
o part10
usemtl c_B9A7E8_100
v 0.952 -0.534 0.281
v 0.941 -0.518 0.255
v 0.941 -0.486 0.255
v 0.952 -0.469 0.281
v 0.964 -0.486 0.306
v 0.964 -0.518 0.306
v 1.197 -0.520 0.169
v 1.191 -0.511 0.155
v 1.191 -0.493 0.155
v 1.197 -0.484 0.169
v 1.203 -0.493 0.183
v 1.203 -0.511 0.183
f 151 152 158
f 151 158 157
f 152 153 159
f 152 159 158
f 153 154 160
f 153 160 159
f 154 155 161
f 154 161 160
f 155 156 162
f 155 162 161
f 156 151 157
f 156 157 162
f 156 155 154
f 156 154 153
f 156 153 152
f 156 152 151
f 157 158 159
f 157 159 160
f 157 160 161
f 157 161 162
o part11
usemtl c_B9A7E8_100
v 0.933 -0.528 0.281
v 0.930 -0.505 0.258
v 0.949 -0.479 0.258
v 0.972 -0.476 0.281
v 0.975 -0.498 0.304
v 0.956 -0.524 0.304
v 1.118 -0.647 0.125
v 1.116 -0.634 0.112
v 1.127 -0.620 0.112
v 1.139 -0.618 0.125
v 1.141 -0.630 0.137
v 1.130 -0.645 0.137
f 163 164 170
f 163 170 169
f 164 165 171
f 164 171 170
f 165 166 172
f 165 172 171
f 166 167 173
f 166 173 172
f 167 168 174
f 167 174 173
f 168 163 169
f 168 169 174
f 168 167 166
f 168 166 165
f 168 165 164
f 168 164 163
f 169 170 171
f 169 171 172
f 169 172 173
f 169 173 174
o part12
usemtl c_B9A7E8_100
v 0.493 -0.414 0.331
v 0.513 -0.396 0.285
v 0.558 -0.365 0.285
v 0.582 -0.354 0.331
v 0.562 -0.372 0.378
v 0.518 -0.402 0.378
v 0.756 -0.758 0.294
v 0.767 -0.748 0.269
v 0.792 -0.732 0.269
v 0.805 -0.725 0.294
v 0.794 -0.735 0.320
v 0.769 -0.752 0.320
f 175 176 182
f 175 182 181
f 176 177 183
f 176 183 182
f 177 178 184
f 177 184 183
f 178 179 185
f 178 185 184
f 179 180 186
f 179 186 185
f 180 175 181
f 180 181 186
f 180 179 178
f 180 178 177
f 180 177 176
f 180 176 175
f 181 182 183
f 181 183 184
f 181 184 185
f 181 185 186
o part13
usemtl c_B9A7E8_100
v 0.750 -0.751 0.294
v 0.761 -0.733 0.270
v 0.792 -0.723 0.270
v 0.811 -0.732 0.294
v 0.800 -0.751 0.318
v 0.769 -0.761 0.318
v 0.832 -0.966 0.154
v 0.838 -0.956 0.141
v 0.855 -0.950 0.141
v 0.866 -0.956 0.154
v 0.860 -0.966 0.167
v 0.843 -0.971 0.167
f 187 188 194
f 187 194 193
f 188 189 195
f 188 195 194
f 189 190 196
f 189 196 195
f 190 191 197
f 190 197 196
f 191 192 198
f 191 198 197
f 192 187 193
f 192 193 198
f 192 191 190
f 192 190 189
f 192 189 188
f 192 188 187
f 193 194 195
f 193 195 196
f 193 196 197
f 193 197 198
o part14
usemtl c_B9A7E8_100
v 0.763 -0.769 0.294
v 0.776 -0.758 0.267
v 0.794 -0.731 0.267
v 0.798 -0.715 0.294
v 0.785 -0.725 0.322
v 0.767 -0.752 0.322
v 0.991 -0.903 0.345
v 0.998 -0.897 0.330
v 1.008 -0.882 0.330
v 1.010 -0.873 0.345
v 1.003 -0.879 0.360
v 0.993 -0.894 0.360
f 199 200 206
f 199 206 205
f 200 201 207
f 200 207 206
f 201 202 208
f 201 208 207
f 202 203 209
f 202 209 208
f 203 204 210
f 203 210 209
f 204 199 205
f 204 205 210
f 204 203 202
f 204 202 201
f 204 201 200
f 204 200 199
f 205 206 207
f 205 207 208
f 205 208 209
f 205 209 210
o part15
usemtl c_B9A7E8_100
v 0.000 -0.090 0.100
v 0.026 -0.045 0.026
v 0.026 0.045 0.026
v 0.000 0.090 0.100
v -0.026 0.045 0.174
v -0.026 -0.045 0.174
v 0.661 -0.050 0.331
v 0.675 -0.025 0.291
v 0.675 0.025 0.291
v 0.661 0.050 0.331
v 0.647 0.025 0.372
v 0.647 -0.025 0.372
f 211 212 218
f 211 218 217
f 212 213 219
f 212 219 218
f 213 214 220
f 213 220 219
f 214 215 221
f 214 221 220
f 215 216 222
f 215 222 221
f 216 211 217
f 216 217 222
f 216 215 214
f 216 214 213
f 216 213 212
f 216 212 211
f 217 218 219
f 217 219 220
f 217 220 221
f 217 221 222
o part16
usemtl c_B9A7E8_100
v 0.675 -0.052 0.331
v 0.670 -0.025 0.285
v 0.656 0.027 0.285
v 0.646 0.052 0.331
v 0.651 0.025 0.378
v 0.665 -0.027 0.378
v 1.086 0.086 0.355
v 1.084 0.101 0.330
v 1.076 0.129 0.330
v 1.071 0.143 0.355
v 1.073 0.129 0.381
v 1.081 0.100 0.381
f 223 224 230
f 223 230 229
f 224 225 231
f 224 231 230
f 225 226 232
f 225 232 231
f 226 227 233
f 226 233 232
f 227 228 234
f 227 234 233
f 228 223 229
f 228 229 234
f 228 227 226
f 228 226 225
f 228 225 224
f 228 224 223
f 229 230 231
f 229 231 232
f 229 232 233
f 229 233 234
o part17
usemtl c_B9A7E8_100
v 1.088 0.083 0.355
v 1.097 0.103 0.332
v 1.088 0.134 0.332
v 1.070 0.146 0.355
v 1.060 0.126 0.379
v 1.069 0.095 0.379
v 1.302 0.161 0.499
v 1.308 0.172 0.486
v 1.303 0.189 0.486
v 1.292 0.195 0.499
v 1.287 0.184 0.512
v 1.292 0.167 0.512
f 235 236 242
f 235 242 241
f 236 237 243
f 236 243 242
f 237 238 244
f 237 244 243
f 238 239 245
f 238 245 244
f 239 240 246
f 239 246 245
f 240 235 241
f 240 241 246
f 240 239 238
f 240 238 237
f 240 237 236
f 240 236 235
f 241 242 243
f 241 243 244
f 241 244 245
f 241 245 246
o part18
usemtl c_B9A7E8_100
v 1.083 0.082 0.355
v 1.073 0.097 0.328
v 1.069 0.130 0.328
v 1.074 0.147 0.355
v 1.084 0.132 0.382
v 1.088 0.100 0.382
v 1.337 0.132 0.282
v 1.332 0.141 0.267
v 1.330 0.158 0.267
v 1.333 0.168 0.282
v 1.338 0.160 0.297
v 1.340 0.142 0.297
f 247 248 254
f 247 254 253
f 248 249 255
f 248 255 254
f 249 250 256
f 249 256 255
f 250 251 257
f 250 257 256
f 251 252 258
f 251 258 257
f 252 247 253
f 252 253 258
f 252 251 250
f 252 250 249
f 252 249 248
f 252 248 247
f 253 254 255
f 253 255 256
f 253 256 257
f 253 257 258
o part19
usemtl c_B9A7E8_100
v 0.674 -0.052 0.331
v 0.661 -0.028 0.285
v 0.649 0.025 0.285
v 0.648 0.052 0.331
v 0.660 0.028 0.378
v 0.673 -0.025 0.378
v 1.086 0.074 0.277
v 1.079 0.087 0.251
v 1.072 0.116 0.251
v 1.072 0.131 0.277
v 1.078 0.118 0.302
v 1.086 0.089 0.302
f 259 260 266
f 259 266 265
f 260 261 267
f 260 267 266
f 261 262 268
f 261 268 267
f 262 263 269
f 262 269 268
f 263 264 270
f 263 270 269
f 264 259 265
f 264 265 270
f 264 263 262
f 264 262 261
f 264 261 260
f 264 260 259
f 265 266 267
f 265 267 268
f 265 268 269
f 265 269 270
o part20
usemtl c_B9A7E8_100
v 1.075 0.070 0.277
v 1.062 0.088 0.253
v 1.066 0.120 0.253
v 1.083 0.135 0.277
v 1.096 0.117 0.300
v 1.092 0.085 0.300
v 1.302 0.057 0.132
v 1.295 0.067 0.119
v 1.297 0.085 0.119
v 1.306 0.093 0.132
v 1.314 0.083 0.145
v 1.311 0.065 0.145
f 271 272 278
f 271 278 277
f 272 273 279
f 272 279 278
f 273 274 280
f 273 280 279
f 274 275 281
f 274 281 280
f 275 276 282
f 275 282 281
f 276 271 277
f 276 277 282
f 276 275 274
f 276 274 273
f 276 273 272
f 276 272 271
f 277 278 279
f 277 279 280
f 277 280 281
f 277 281 282
o part21
usemtl c_B9A7E8_100
v 1.099 0.077 0.277
v 1.081 0.083 0.251
v 1.060 0.108 0.251
v 1.058 0.127 0.277
v 1.077 0.122 0.302
v 1.098 0.097 0.302
v 1.281 0.245 0.170
v 1.271 0.248 0.156
v 1.260 0.262 0.156
v 1.259 0.273 0.170
v 1.269 0.270 0.185
v 1.280 0.256 0.185
f 283 284 290
f 283 290 289
f 284 285 291
f 284 291 290
f 285 286 292
f 285 292 291
f 286 287 293
f 286 293 292
f 287 288 294
f 287 294 293
f 288 283 289
f 288 289 294
f 288 287 286
f 288 286 285
f 288 285 284
f 288 284 283
f 289 290 291
f 289 291 292
f 289 292 293
f 289 293 294
o part22
usemtl c_B9A7E8_100
v 0.052 -0.073 0.100
v 0.047 -0.022 0.026
v -0.005 0.052 0.026
v -0.052 0.073 0.100
v -0.047 0.022 0.174
v 0.005 -0.052 0.174
v 0.566 0.344 0.331
v 0.564 0.372 0.291
v 0.535 0.412 0.291
v 0.509 0.424 0.331
v 0.512 0.396 0.372
v 0.541 0.356 0.372
f 295 296 302
f 295 302 301
f 296 297 303
f 296 303 302
f 297 298 304
f 297 304 303
f 298 299 305
f 298 305 304
f 299 300 306
f 299 306 305
f 300 295 301
f 300 301 306
f 300 299 298
f 300 298 297
f 300 297 296
f 300 296 295
f 301 302 303
f 301 303 304
f 301 304 305
f 301 305 306
o part23
usemtl c_B9A7E8_100
v 0.553 0.332 0.331
v 0.549 0.359 0.285
v 0.534 0.411 0.285
v 0.522 0.436 0.331
v 0.526 0.409 0.378
v 0.542 0.357 0.378
v 0.961 0.479 0.369
v 0.958 0.494 0.343
v 0.950 0.523 0.343
v 0.944 0.536 0.369
v 0.946 0.521 0.394
v 0.954 0.493 0.394
f 307 308 314
f 307 314 313
f 308 309 315
f 308 315 314
f 309 310 316
f 309 316 315
f 310 311 317
f 310 317 316
f 311 312 318
f 311 318 317
f 312 307 313
f 312 313 318
f 312 311 310
f 312 310 309
f 312 309 308
f 312 308 307
f 313 314 315
f 313 315 316
f 313 316 317
f 313 317 318
o part24
usemtl c_B9A7E8_100
v 0.941 0.477 0.369
v 0.953 0.490 0.341
v 0.964 0.521 0.341
v 0.963 0.538 0.369
v 0.951 0.525 0.396
v 0.940 0.495 0.396
v 1.193 0.404 0.431
v 1.199 0.411 0.416
v 1.205 0.428 0.416
v 1.205 0.437 0.431
v 1.198 0.430 0.446
v 1.192 0.413 0.446
f 319 320 326
f 319 326 325
f 320 321 327
f 320 327 326
f 321 322 328
f 321 328 327
f 322 323 329
f 322 329 328
f 323 324 330
f 323 330 329
f 324 319 325
f 324 325 330
f 324 323 322
f 324 322 321
f 324 321 320
f 324 320 319
f 325 326 327
f 325 327 328
f 325 328 329
f 325 329 330
o part25
usemtl c_B9A7E8_100
v 0.950 0.475 0.369
v 0.961 0.491 0.342
v 0.963 0.523 0.342
v 0.954 0.540 0.369
v 0.943 0.525 0.395
v 0.941 0.492 0.395
v 1.202 0.473 0.465
v 1.208 0.481 0.450
v 1.209 0.499 0.450
v 1.204 0.509 0.465
v 1.198 0.500 0.479
v 1.197 0.482 0.479
f 331 332 338
f 331 338 337
f 332 333 339
f 332 339 338
f 333 334 340
f 333 340 339
f 334 335 341
f 334 341 340
f 335 336 342
f 335 342 341
f 336 331 337
f 336 337 342
f 336 335 334
f 336 334 333
f 336 333 332
f 336 332 331
f 337 338 339
f 337 339 340
f 337 340 341
f 337 341 342
o part26
usemtl c_B9A7E8_100
v 0.583 0.355 0.331
v 0.563 0.374 0.285
v 0.517 0.402 0.285
v 0.492 0.413 0.331
v 0.512 0.394 0.378
v 0.558 0.365 0.378
v 0.793 0.733 0.377
v 0.781 0.744 0.351
v 0.756 0.759 0.351
v 0.742 0.765 0.377
v 0.753 0.755 0.402
v 0.779 0.739 0.402
f 343 344 350
f 343 350 349
f 344 345 351
f 344 351 350
f 345 346 352
f 345 352 351
f 346 347 353
f 346 353 352
f 347 348 354
f 347 354 353
f 348 343 349
f 348 349 354
f 348 347 346
f 348 346 345
f 348 345 344
f 348 344 343
f 349 350 351
f 349 351 352
f 349 352 353
f 349 353 354
o part27
usemtl c_B9A7E8_100
v 0.794 0.731 0.377
v 0.791 0.754 0.355
v 0.764 0.773 0.355
v 0.741 0.768 0.377
v 0.744 0.744 0.399
v 0.771 0.725 0.399
v 0.902 0.910 0.547
v 0.900 0.923 0.535
v 0.886 0.933 0.535
v 0.873 0.930 0.547
v 0.875 0.917 0.559
v 0.889 0.907 0.559
f 355 356 362
f 355 362 361
f 356 357 363
f 356 363 362
f 357 358 364
f 357 364 363
f 358 359 365
f 358 365 364
f 359 360 366
f 359 366 365
f 360 355 361
f 360 361 366
f 360 359 358
f 360 358 357
f 360 357 356
f 360 356 355
f 361 362 363
f 361 363 364
f 361 364 365
f 361 365 366
o part28
usemtl c_B9A7E8_100
v 0.782 0.721 0.377
v 0.781 0.738 0.350
v 0.766 0.767 0.350
v 0.752 0.778 0.377
v 0.754 0.760 0.404
v 0.769 0.732 0.404
v 1.006 0.854 0.446
v 1.006 0.863 0.431
v 0.997 0.879 0.431
v 0.990 0.885 0.446
v 0.990 0.876 0.461
v 0.999 0.860 0.461
f 367 368 374
f 367 374 373
f 368 369 375
f 368 375 374
f 369 370 376
f 369 376 375
f 370 371 377
f 370 377 376
f 371 372 378
f 371 378 377
f 372 367 373
f 372 373 378
f 372 371 370
f 372 370 369
f 372 369 368
f 372 368 367
f 373 374 375
f 373 375 376
f 373 376 377
f 373 377 378
o part29
usemtl c_B9A7E8_100
v 0.085 -0.029 0.100
v 0.051 0.010 0.026
v -0.034 0.039 0.026
v -0.085 0.029 0.100
v -0.051 -0.010 0.174
v 0.034 -0.039 0.174
v 0.261 0.609 0.331
v 0.243 0.630 0.291
v 0.196 0.646 0.291
v 0.168 0.641 0.331
v 0.187 0.620 0.372
v 0.233 0.603 0.372
f 379 380 386
f 379 386 385
f 380 381 387
f 380 387 386
f 381 382 388
f 381 388 387
f 382 383 389
f 382 389 388
f 383 384 390
f 383 390 389
f 384 379 385
f 384 385 390
f 384 383 382
f 384 382 381
f 384 381 380
f 384 380 379
f 385 386 387
f 385 387 388
f 385 388 389
f 385 389 390
o part30
usemtl c_B9A7E8_100
v 0.248 0.582 0.331
v 0.248 0.617 0.289
v 0.214 0.659 0.289
v 0.181 0.667 0.331
v 0.182 0.633 0.373
v 0.215 0.591 0.373
v 0.538 0.843 0.524
v 0.538 0.861 0.501
v 0.520 0.885 0.501
v 0.501 0.889 0.524
v 0.502 0.870 0.547
v 0.520 0.847 0.547
f 391 392 398
f 391 398 397
f 392 393 399
f 392 399 398
f 393 394 400
f 393 400 399
f 394 395 401
f 394 401 400
f 395 396 402
f 395 402 401
f 396 391 397
f 396 397 402
f 396 395 394
f 396 394 393
f 396 393 392
f 396 392 391
f 397 398 399
f 397 399 400
f 397 400 401
f 397 401 402
o part31
usemtl c_B9A7E8_100
v 0.545 0.845 0.524
v 0.531 0.854 0.496
v 0.506 0.875 0.496
v 0.495 0.886 0.524
v 0.508 0.877 0.552
v 0.533 0.857 0.552
v 0.703 1.063 0.507
v 0.695 1.068 0.491
v 0.681 1.079 0.491
v 0.675 1.086 0.507
v 0.683 1.081 0.522
v 0.696 1.070 0.522
f 403 404 410
f 403 410 409
f 404 405 411
f 404 411 410
f 405 406 412
f 405 412 411
f 406 407 413
f 406 413 412
f 407 408 414
f 407 414 413
f 408 403 409
f 408 409 414
f 408 407 406
f 408 406 405
f 408 405 404
f 408 404 403
f 409 410 411
f 409 411 412
f 409 412 413
f 409 413 414
o part32
usemtl c_B9A7E8_100
v 0.535 0.837 0.524
v 0.531 0.853 0.496
v 0.516 0.882 0.496
v 0.505 0.895 0.524
v 0.509 0.878 0.552
v 0.523 0.849 0.552
v 0.764 0.972 0.565
v 0.762 0.981 0.549
v 0.754 0.997 0.549
v 0.748 1.004 0.565
v 0.750 0.995 0.580
v 0.758 0.979 0.580
f 415 416 422
f 415 422 421
f 416 417 423
f 416 423 422
f 417 418 424
f 417 424 423
f 418 419 425
f 418 425 424
f 419 420 426
f 419 426 425
f 420 415 421
f 420 421 426
f 420 419 418
f 420 418 417
f 420 417 416
f 420 416 415
f 421 422 423
f 421 423 424
f 421 424 425
f 421 425 426
o part33
usemtl c_B9A7E8_100
v 0.245 0.580 0.331
v 0.237 0.607 0.285
v 0.206 0.652 0.285
v 0.184 0.669 0.331
v 0.193 0.642 0.377
v 0.223 0.598 0.377
v 0.583 0.844 0.406
v 0.578 0.859 0.381
v 0.561 0.883 0.381
v 0.549 0.893 0.406
v 0.554 0.878 0.432
v 0.571 0.854 0.432
f 427 428 434
f 427 434 433
f 428 429 435
f 428 435 434
f 429 430 436
f 429 436 435
f 430 431 437
f 430 437 436
f 431 432 438
f 431 438 437
f 432 427 433
f 432 433 438
f 432 431 430
f 432 430 429
f 432 429 428
f 432 428 427
f 433 434 435
f 433 435 436
f 433 436 437
f 433 437 438
o part34
usemtl c_B9A7E8_100
v 0.596 0.855 0.406
v 0.583 0.866 0.379
v 0.553 0.879 0.379
v 0.536 0.881 0.406
v 0.549 0.871 0.434
v 0.579 0.858 0.434
v 0.688 1.105 0.450
v 0.681 1.111 0.435
v 0.665 1.118 0.435
v 0.655 1.119 0.450
v 0.663 1.113 0.465
v 0.679 1.106 0.465
f 439 440 446
f 439 446 445
f 440 441 447
f 440 447 446
f 441 442 448
f 441 448 447
f 442 443 449
f 442 449 448
f 443 444 450
f 443 450 449
f 444 439 445
f 444 445 450
f 444 443 442
f 444 442 441
f 444 441 440
f 444 440 439
f 445 446 447
f 445 447 448
f 445 448 449
f 445 449 450
o part35
usemtl c_B9A7E8_100
v 0.584 0.841 0.406
v 0.590 0.865 0.385
v 0.573 0.892 0.385
v 0.548 0.895 0.406
v 0.542 0.872 0.427
v 0.559 0.845 0.427
v 0.745 0.964 0.584
v 0.748 0.977 0.573
v 0.738 0.992 0.573
v 0.725 0.994 0.584
v 0.721 0.981 0.596
v 0.731 0.966 0.596
f 451 452 458
f 451 458 457
f 452 453 459
f 452 459 458
f 453 454 460
f 453 460 459
f 454 455 461
f 454 461 460
f 455 456 462
f 455 462 461
f 456 451 457
f 456 457 462
f 456 455 454
f 456 454 453
f 456 453 452
f 456 452 451
f 457 458 459
f 457 459 460
f 457 460 461
f 457 461 462
o part36
usemtl c_7E6BC4_100
v 0.000 -0.070 -0.408
v -0.060 -0.034 -0.414
v -0.060 0.036 -0.406
v -0.000 0.070 -0.392
v 0.060 0.034 -0.386
v 0.060 -0.036 -0.394
v 0.150 0.050 -1.306
v 0.107 0.076 -1.310
v 0.107 0.126 -1.304
v 0.150 0.150 -1.294
v 0.193 0.124 -1.290
v 0.193 0.074 -1.296
f 463 464 470
f 463 470 469
f 464 465 471
f 464 471 470
f 465 466 472
f 465 472 471
f 466 467 473
f 466 473 472
f 467 468 474
f 467 474 473
f 468 463 469
f 468 469 474
f 468 467 466
f 468 466 465
f 468 465 464
f 468 464 463
f 469 470 471
f 469 471 472
f 469 472 473
f 469 473 474
o part37
usemtl c_7E6BC4_100
v 0.150 0.031 -1.313
v 0.094 0.070 -1.330
v 0.094 0.139 -1.317
v 0.150 0.169 -1.287
v 0.206 0.130 -1.270
v 0.206 0.061 -1.283
v 0.500 0.201 -2.109
v 0.460 0.229 -2.121
v 0.460 0.278 -2.112
v 0.500 0.299 -2.091
v 0.540 0.271 -2.079
v 0.540 0.222 -2.088
f 475 476 482
f 475 482 481
f 476 477 483
f 476 483 482
f 477 478 484
f 477 484 483
f 478 479 485
f 478 485 484
f 479 480 486
f 479 486 485
f 480 475 481
f 480 481 486
f 480 479 478
f 480 478 477
f 480 477 476
f 480 476 475
f 481 482 483
f 481 483 484
f 481 484 485
f 481 485 486
o part38
usemtl c_7E6BC4_100
v 0.520 0.290 -2.100
v 0.535 0.258 -2.127
v 0.515 0.217 -2.127
v 0.480 0.210 -2.100
v 0.465 0.242 -2.073
v 0.485 0.283 -2.073
v 0.241 0.407 -2.415
v 0.249 0.389 -2.430
v 0.238 0.367 -2.430
v 0.219 0.363 -2.415
v 0.211 0.381 -2.400
v 0.222 0.403 -2.400
f 487 488 494
f 487 494 493
f 488 489 495
f 488 495 494
f 489 490 496
f 489 496 495
f 490 491 497
f 490 497 496
f 491 492 498
f 491 498 497
f 492 487 493
f 492 493 498
f 492 491 490
f 492 490 489
f 492 489 488
f 492 488 487
f 493 494 495
f 493 495 496
f 493 496 497
f 493 497 498
o part39
usemtl c_7E6BC4_100
v 0.223 0.411 -2.415
v 0.242 0.402 -2.432
v 0.249 0.376 -2.432
v 0.237 0.359 -2.415
v 0.218 0.368 -2.398
v 0.211 0.394 -2.398
v 0.040 0.347 -2.605
v 0.051 0.343 -2.614
v 0.055 0.328 -2.614
v 0.048 0.319 -2.605
v 0.038 0.324 -2.596
v 0.034 0.338 -2.596
f 499 500 506
f 499 506 505
f 500 501 507
f 500 507 506
f 501 502 508
f 501 508 507
f 502 503 509
f 502 509 508
f 503 504 510
f 503 510 509
f 504 499 505
f 504 505 510
f 504 503 502
f 504 502 501
f 504 501 500
f 504 500 499
f 505 506 507
f 505 507 508
f 505 508 509
f 505 509 510
o part40
usemtl c_7E6BC4_100
v 0.230 0.359 -2.420
v 0.208 0.370 -2.410
v 0.208 0.397 -2.405
v 0.230 0.411 -2.410
v 0.252 0.400 -2.420
v 0.252 0.373 -2.425
v 0.140 0.420 -2.668
v 0.128 0.426 -2.662
v 0.128 0.441 -2.660
v 0.140 0.449 -2.662
v 0.152 0.442 -2.668
v 0.152 0.428 -2.671
f 511 512 518
f 511 518 517
f 512 513 519
f 512 519 518
f 513 514 520
f 513 520 519
f 514 515 521
f 514 521 520
f 515 516 522
f 515 522 521
f 516 511 517
f 516 517 522
f 516 515 514
f 516 514 513
f 516 513 512
f 516 512 511
f 517 518 519
f 517 519 520
f 517 520 521
f 517 521 522
o part41
usemtl c_7E6BC4_100
v 0.520 0.210 -2.100
v 0.485 0.217 -2.127
v 0.465 0.258 -2.127
v 0.480 0.290 -2.100
v 0.515 0.283 -2.073
v 0.535 0.242 -2.073
v 0.781 0.363 -2.415
v 0.762 0.367 -2.430
v 0.751 0.389 -2.430
v 0.759 0.407 -2.415
v 0.778 0.403 -2.400
v 0.789 0.381 -2.400
f 523 524 530
f 523 530 529
f 524 525 531
f 524 531 530
f 525 526 532
f 525 532 531
f 526 527 533
f 526 533 532
f 527 528 534
f 527 534 533
f 528 523 529
f 528 529 534
f 528 527 526
f 528 526 525
f 528 525 524
f 528 524 523
f 529 530 531
f 529 531 532
f 529 532 533
f 529 533 534
o part42
usemtl c_7E6BC4_100
v 0.792 0.370 -2.415
v 0.770 0.361 -2.427
v 0.748 0.376 -2.427
v 0.748 0.400 -2.415
v 0.770 0.409 -2.403
v 0.792 0.394 -2.403
v 0.861 0.491 -2.647
v 0.849 0.487 -2.653
v 0.837 0.495 -2.653
v 0.837 0.508 -2.647
v 0.849 0.513 -2.640
v 0.862 0.505 -2.640
f 535 536 542
f 535 542 541
f 536 537 543
f 536 543 542
f 537 538 544
f 537 544 543
f 538 539 545
f 538 545 544
f 539 540 546
f 539 546 545
f 540 535 541
f 540 541 546
f 540 539 538
f 540 538 537
f 540 537 536
f 540 536 535
f 541 542 543
f 541 543 544
f 541 544 545
f 541 545 546
o part43
usemtl c_7E6BC4_100
v 0.791 0.369 -2.415
v 0.772 0.366 -2.434
v 0.751 0.382 -2.434
v 0.749 0.401 -2.415
v 0.768 0.404 -2.396
v 0.789 0.388 -2.396
v 0.915 0.550 -2.573
v 0.904 0.549 -2.583
v 0.893 0.558 -2.583
v 0.891 0.568 -2.573
v 0.902 0.570 -2.562
v 0.914 0.561 -2.562
f 547 548 554
f 547 554 553
f 548 549 555
f 548 555 554
f 549 550 556
f 549 556 555
f 550 551 557
f 550 557 556
f 551 552 558
f 551 558 557
f 552 547 553
f 552 553 558
f 552 551 550
f 552 550 549
f 552 549 548
f 552 548 547
f 553 554 555
f 553 555 556
f 553 556 557
f 553 557 558
