# tcell mesh for mechanism-demo. Coordinates are RELATIVE TO THE
# COMPONENT ORIGIN — the demo applies pos/rot/scale at render time.
# Regenerate: python tools/build_mechanism_models.py

mtllib materials.mtl

o part0
usemtl c_F3B9C8_45
v -0.534 0.863 0.000
v 0.551 0.891 0.000
v -0.543 -0.879 0.000
v 0.508 -0.823 0.000
v 0.000 -0.513 0.830
v 0.000 0.549 0.889
v 0.000 -0.495 -0.800
v 0.000 0.546 -0.883
v 0.881 0.000 -0.544
v 0.847 0.000 0.524
v -0.831 0.000 -0.513
v -0.828 0.000 0.512
v -0.785 0.485 0.300
v -0.497 0.307 0.804
v -0.309 0.809 0.500
v 0.311 0.814 0.503
v 0.000 1.059 0.000
v 0.320 0.837 -0.518
v -0.314 0.821 -0.507
v -0.529 0.327 -0.856
v -0.781 0.483 -0.298
v -0.959 0.000 0.000
v 0.507 0.313 0.820
v 0.765 0.473 0.292
v -0.472 -0.292 0.764
v 0.000 0.000 1.002
v -0.806 -0.498 -0.308
v -0.850 -0.525 0.324
v 0.000 0.000 -1.016
v -0.501 -0.310 -0.810
v 0.809 0.500 -0.309
v 0.485 0.300 -0.785
v 0.762 -0.471 0.291
v 0.482 -0.298 0.779
v 0.316 -0.828 0.512
v -0.298 -0.780 0.482
v 0.000 -0.984 0.000
v -0.291 -0.761 -0.470
v 0.321 -0.841 -0.520
v 0.479 -0.296 -0.775
v 0.786 -0.486 -0.300
v 1.046 0.000 0.000
f 1 13 15
f 12 14 13
f 6 15 14
f 13 14 15
f 1 15 17
f 6 16 15
f 2 17 16
f 15 16 17
f 1 17 19
f 2 18 17
f 8 19 18
f 17 18 19
f 1 19 21
f 8 20 19
f 11 21 20
f 19 20 21
f 1 21 13
f 11 22 21
f 12 13 22
f 21 22 13
f 2 16 24
f 6 23 16
f 10 24 23
f 16 23 24
f 6 14 26
f 12 25 14
f 5 26 25
f 14 25 26
f 12 22 28
f 11 27 22
f 3 28 27
f 22 27 28
f 11 20 30
f 8 29 20
f 7 30 29
f 20 29 30
f 8 18 32
f 2 31 18
f 9 32 31
f 18 31 32
f 4 33 35
f 10 34 33
f 5 35 34
f 33 34 35
f 4 35 37
f 5 36 35
f 3 37 36
f 35 36 37
f 4 37 39
f 3 38 37
f 7 39 38
f 37 38 39
f 4 39 41
f 7 40 39
f 9 41 40
f 39 40 41
f 4 41 33
f 9 42 41
f 10 33 42
f 41 42 33
f 5 34 26
f 10 23 34
f 6 26 23
f 34 23 26
f 3 36 28
f 5 25 36
f 12 28 25
f 36 25 28
f 7 38 30
f 3 27 38
f 11 30 27
f 38 27 30
f 9 40 32
f 7 29 40
f 8 32 29
f 40 29 32
f 10 42 24
f 9 31 42
f 2 24 31
f 42 31 24
o part1
usemtl c_C26A86_85
v -0.169 0.388 0.100
v 0.419 0.404 0.100
v -0.173 -0.554 0.100
v 0.416 -0.559 0.100
v 0.120 -0.357 0.549
v 0.120 0.210 0.570
v 0.120 -0.369 -0.368
v 0.120 0.220 -0.385
v 0.581 -0.080 -0.185
v 0.592 -0.080 0.392
v -0.327 -0.080 -0.176
v -0.343 -0.080 0.386
v -0.317 0.190 0.267
v -0.145 0.084 0.529
v -0.055 0.379 0.384
v 0.288 0.360 0.372
v 0.120 0.496 0.100
v 0.291 0.369 -0.177
v -0.052 0.370 -0.178
v -0.159 0.092 -0.351
v -0.333 0.200 -0.073
v -0.411 -0.080 0.100
v 0.393 0.089 0.542
v 0.553 0.188 0.266
v -0.152 -0.248 0.541
v 0.120 -0.080 0.628
v -0.346 -0.368 -0.078
v -0.312 -0.347 0.265
v 0.120 -0.080 -0.459
v -0.150 -0.247 -0.336
v 0.582 0.205 -0.076
v 0.399 0.093 -0.352
v 0.549 -0.345 0.264
v 0.404 -0.256 0.560
v 0.298 -0.545 0.387
v -0.057 -0.543 0.386
v 0.120 -0.634 0.100
v -0.044 -0.509 -0.165
v 0.285 -0.511 -0.167
v 0.407 -0.257 -0.364
v 0.567 -0.356 -0.071
v 0.652 -0.080 0.100
f 43 55 57
f 54 56 55
f 48 57 56
f 55 56 57
f 43 57 59
f 48 58 57
f 44 59 58
f 57 58 59
f 43 59 61
f 44 60 59
f 50 61 60
f 59 60 61
f 43 61 63
f 50 62 61
f 53 63 62
f 61 62 63
f 43 63 55
f 53 64 63
f 54 55 64
f 63 64 55
f 44 58 66
f 48 65 58
f 52 66 65
f 58 65 66
f 48 56 68
f 54 67 56
f 47 68 67
f 56 67 68
f 54 64 70
f 53 69 64
f 45 70 69
f 64 69 70
f 53 62 72
f 50 71 62
f 49 72 71
f 62 71 72
f 50 60 74
f 44 73 60
f 51 74 73
f 60 73 74
f 46 75 77
f 52 76 75
f 47 77 76
f 75 76 77
f 46 77 79
f 47 78 77
f 45 79 78
f 77 78 79
f 46 79 81
f 45 80 79
f 49 81 80
f 79 80 81
f 46 81 83
f 49 82 81
f 51 83 82
f 81 82 83
f 46 83 75
f 51 84 83
f 52 75 84
f 83 84 75
f 47 76 68
f 52 65 76
f 48 68 65
f 76 65 68
f 45 78 70
f 47 67 78
f 54 70 67
f 78 67 70
f 49 80 72
f 45 69 80
f 53 72 69
f 80 69 72
f 51 82 74
f 49 71 82
f 50 74 71
f 82 71 74
f 52 84 66
f 51 73 84
f 44 66 73
f 84 73 66
