# tf mesh for mechanism-demo. Coordinates are RELATIVE TO THE
# COMPONENT ORIGIN — the demo applies pos/rot/scale at render time.
# Regenerate: python tools/build_mechanism_models.py

mtllib materials.mtl

o part0
usemtl c_2D5A7F_100
v -0.146 0.236 -0.650
v 0.143 0.232 -0.650
v -0.142 -0.229 -0.650
v 0.140 -0.227 -0.650
v 0.000 -0.147 -0.412
v 0.000 0.142 -0.421
v 0.000 -0.142 -0.880
v 0.000 0.153 -0.897
v 0.238 0.000 -0.797
v 0.231 0.000 -0.507
v -0.242 0.000 -0.800
v -0.233 0.000 -0.506
v -0.227 0.140 -0.563
v -0.137 0.085 -0.428
v -0.087 0.227 -0.510
v 0.088 0.229 -0.508
v 0.000 0.281 -0.650
v 0.086 0.224 -0.789
v -0.089 0.233 -0.794
v -0.145 0.090 -0.885
v -0.219 0.136 -0.734
v -0.270 0.000 -0.650
v 0.135 0.083 -0.432
v 0.237 0.147 -0.559
v -0.146 -0.090 -0.413
v 0.000 0.000 -0.378
v -0.237 -0.147 -0.741
v -0.220 -0.136 -0.566
v 0.000 0.000 -0.930
v -0.140 -0.087 -0.876
v 0.236 0.146 -0.740
v 0.134 0.083 -0.866
v 0.222 -0.137 -0.565
v 0.141 -0.087 -0.421
v 0.083 -0.217 -0.516
v -0.084 -0.221 -0.514
v 0.000 -0.279 -0.650
v -0.090 -0.235 -0.795
v 0.089 -0.232 -0.794
v 0.145 -0.089 -0.884
v 0.232 -0.144 -0.739
v 0.286 0.000 -0.650
f 1 13 15
f 12 14 13
f 6 15 14
f 13 14 15
f 1 15 17
f 6 16 15
f 2 17 16
f 15 16 17
f 1 17 19
f 2 18 17
f 8 19 18
f 17 18 19
f 1 19 21
f 8 20 19
f 11 21 20
f 19 20 21
f 1 21 13
f 11 22 21
f 12 13 22
f 21 22 13
f 2 16 24
f 6 23 16
f 10 24 23
f 16 23 24
f 6 14 26
f 12 25 14
f 5 26 25
f 14 25 26
f 12 22 28
f 11 27 22
f 3 28 27
f 22 27 28
f 11 20 30
f 8 29 20
f 7 30 29
f 20 29 30
f 8 18 32
f 2 31 18
f 9 32 31
f 18 31 32
f 4 33 35
f 10 34 33
f 5 35 34
f 33 34 35
f 4 35 37
f 5 36 35
f 3 37 36
f 35 36 37
f 4 37 39
f 3 38 37
f 7 39 38
f 37 38 39
f 4 39 41
f 7 40 39
f 9 41 40
f 39 40 41
f 4 41 33
f 9 42 41
f 10 33 42
f 41 42 33
f 5 34 26
f 10 23 34
f 6 26 23
f 34 23 26
f 3 36 28
f 5 25 36
f 12 28 25
f 36 25 28
f 7 38 30
f 3 27 38
f 11 30 27
f 38 27 30
f 9 40 32
f 7 29 40
f 8 32 29
f 40 29 32
f 10 42 24
f 9 31 42
f 2 24 31
f 42 31 24
