# trkb mesh for mechanism-demo. Coordinates are RELATIVE TO THE
# COMPONENT ORIGIN — the demo applies pos/rot/scale at render time.
# Regenerate: python tools/build_mechanism_models.py

mtllib materials.mtl

o part0
usemtl c_17B7AE_100
v -0.166 0.107 0.550
v -0.030 0.113 0.550
v -0.166 -0.107 0.550
v -0.033 -0.108 0.550
v -0.100 -0.070 0.734
v -0.100 0.067 0.727
v -0.100 -0.066 0.378
v -0.100 0.071 0.364
v 0.007 0.000 0.443
v 0.015 0.000 0.665
v -0.214 0.000 0.436
v -0.208 0.000 0.658
v -0.207 0.066 0.616
v -0.159 0.037 0.706
v -0.139 0.102 0.652
v -0.058 0.110 0.660
v -0.100 0.130 0.550
v -0.060 0.105 0.445
v -0.141 0.106 0.443
v -0.166 0.041 0.377
v -0.205 0.065 0.485
v -0.226 0.000 0.550
v -0.039 0.038 0.710
v 0.000 0.062 0.612
v -0.162 -0.038 0.713
v -0.100 0.000 0.756
v -0.212 -0.069 0.481
v -0.201 -0.062 0.613
v -0.100 0.000 0.344
v -0.163 -0.039 0.385
v 0.005 0.065 0.485
v -0.031 0.042 0.370
v 0.010 -0.068 0.618
v -0.037 -0.039 0.715
v -0.062 -0.100 0.650
v -0.142 -0.110 0.660
v -0.100 -0.128 0.550
v -0.141 -0.107 0.443
v -0.063 -0.096 0.453
v -0.032 -0.042 0.372
v 0.000 -0.062 0.488
v 0.028 0.000 0.550
f 1 13 15
f 12 14 13
f 6 15 14
f 13 14 15
f 1 15 17
f 6 16 15
f 2 17 16
f 15 16 17
f 1 17 19
f 2 18 17
f 8 19 18
f 17 18 19
f 1 19 21
f 8 20 19
f 11 21 20
f 19 20 21
f 1 21 13
f 11 22 21
f 12 13 22
f 21 22 13
f 2 16 24
f 6 23 16
f 10 24 23
f 16 23 24
f 6 14 26
f 12 25 14
f 5 26 25
f 14 25 26
f 12 22 28
f 11 27 22
f 3 28 27
f 22 27 28
f 11 20 30
f 8 29 20
f 7 30 29
f 20 29 30
f 8 18 32
f 2 31 18
f 9 32 31
f 18 31 32
f 4 33 35
f 10 34 33
f 5 35 34
f 33 34 35
f 4 35 37
f 5 36 35
f 3 37 36
f 35 36 37
f 4 37 39
f 3 38 37
f 7 39 38
f 37 38 39
f 4 39 41
f 7 40 39
f 9 41 40
f 39 40 41
f 4 41 33
f 9 42 41
f 10 33 42
f 41 42 33
f 5 34 26
f 10 23 34
f 6 26 23
f 34 23 26
f 3 36 28
f 5 25 36
f 12 28 25
f 36 25 28
f 7 38 30
f 3 27 38
f 11 30 27
f 38 27 30
f 9 40 32
f 7 29 40
f 8 32 29
f 40 29 32
f 10 42 24
f 9 31 42
f 2 24 31
f 42 31 24
o part1
usemtl c_17B7AE_100
v 0.036 0.104 0.550
v 0.166 0.107 0.550
v 0.029 -0.115 0.550
v 0.171 -0.115 0.550
v 0.100 -0.067 0.726
v 0.100 0.070 0.735
v 0.100 -0.067 0.374
v 0.100 0.066 0.377
v 0.210 0.000 0.440
v 0.204 0.000 0.654
v -0.006 0.000 0.444
v -0.012 0.000 0.663
v -0.008 0.067 0.617
v 0.041 0.037 0.706
v 0.059 0.107 0.658
v 0.142 0.109 0.659
v 0.100 0.127 0.550
v 0.137 0.096 0.453
v 0.059 0.107 0.443
v 0.039 0.038 0.389
v -0.006 0.065 0.484
v -0.025 0.000 0.550
v 0.165 0.040 0.722
v 0.200 0.062 0.612
v 0.036 -0.039 0.718
v 0.100 0.000 0.759
v -0.006 -0.065 0.484
v 0.001 -0.061 0.611
v 0.100 0.000 0.327
v 0.038 -0.038 0.387
v 0.200 0.062 0.488
v 0.162 0.038 0.388
v 0.196 -0.060 0.610
v 0.163 -0.039 0.716
v 0.141 -0.108 0.659
v 0.059 -0.107 0.657
v 0.100 -0.122 0.550
v 0.063 -0.098 0.452
v 0.138 -0.101 0.449
v 0.167 -0.041 0.375
v 0.203 -0.064 0.486
v 0.237 0.000 0.550
f 43 55 57
f 54 56 55
f 48 57 56
f 55 56 57
f 43 57 59
f 48 58 57
f 44 59 58
f 57 58 59
f 43 59 61
f 44 60 59
f 50 61 60
f 59 60 61
f 43 61 63
f 50 62 61
f 53 63 62
f 61 62 63
f 43 63 55
f 53 64 63
f 54 55 64
f 63 64 55
f 44 58 66
f 48 65 58
f 52 66 65
f 58 65 66
f 48 56 68
f 54 67 56
f 47 68 67
f 56 67 68
f 54 64 70
f 53 69 64
f 45 70 69
f 64 69 70
f 53 62 72
f 50 71 62
f 49 72 71
f 62 71 72
f 50 60 74
f 44 73 60
f 51 74 73
f 60 73 74
f 46 75 77
f 52 76 75
f 47 77 76
f 75 76 77
f 46 77 79
f 47 78 77
f 45 79 78
f 77 78 79
f 46 79 81
f 45 80 79
f 49 81 80
f 79 80 81
f 46 81 83
f 49 82 81
f 51 83 82
f 81 82 83
f 46 83 75
f 51 84 83
f 52 75 84
f 83 84 75
f 47 76 68
f 52 65 76
f 48 68 65
f 76 65 68
f 45 78 70
f 47 67 78
f 54 70 67
f 78 67 70
f 49 80 72
f 45 69 80
f 53 72 69
f 80 69 72
f 51 82 74
f 49 71 82
f 50 74 71
f 82 71 74
f 52 84 66
f 51 73 84
f 44 66 73
f 84 73 66
o part2
usemtl c_17B7AE_100
v 0.000 -0.070 0.400
v -0.061 -0.035 0.400
v -0.061 0.035 0.400
v -0.000 0.070 0.400
v 0.061 0.035 0.400
v 0.061 -0.035 0.400
v 0.000 -0.090 -0.500
v -0.078 -0.045 -0.500
v -0.078 0.045 -0.500
v -0.000 0.090 -0.500
v 0.078 0.045 -0.500
v 0.078 -0.045 -0.500
f 85 86 92
f 85 92 91
f 86 87 93
f 86 93 92
f 87 88 94
f 87 94 93
f 88 89 95
f 88 95 94
f 89 90 96
f 89 96 95
f 90 85 91
f 90 91 96
f 90 89 88
f 90 88 87
f 90 87 86
f 90 86 85
f 91 92 93
f 91 93 94
f 91 94 95
f 91 95 96
